HIERARCHY
ROOT Hips
{
 OFFSET 0.000000 0.000000 0.000000
 CHANNELS 6 Xposition Yposition Zposition Yrotation Xrotation Zrotation
 JOINT Chest
 {
  OFFSET 0.000000 9.585900 0.002600
  CHANNELS 3 Yrotation Xrotation Zrotation
  JOINT Chest2
  {
   OFFSET 0.000000 9.601200 -0.005300
   CHANNELS 3 Yrotation Xrotation Zrotation
   JOINT Chest3
   {
    OFFSET 0.000000 9.561800 0.000000
    CHANNELS 3 Yrotation Xrotation Zrotation
    JOINT Chest4
    {
     OFFSET 0.000000 9.552100 0.000000
     CHANNELS 3 Yrotation Xrotation Zrotation
     JOINT Neck
     {
      OFFSET 0.000000 14.453000 0.000000
      CHANNELS 3 Yrotation Xrotation Zrotation
      JOINT Head
      {
       OFFSET 0.000000 8.936500 -0.011300
       CHANNELS 3 Yrotation Xrotation Zrotation
       End Site
       {
        OFFSET 0.000000 17.073600 -0.006000
       }
      }
     }
     JOINT RightCollar
     {
      OFFSET -2.921100 9.558500 0.000000
      CHANNELS 3 Yrotation Xrotation Zrotation
      JOINT RightShoulder
      {
       OFFSET -13.519700 0.000000 0.000000
       CHANNELS 3 Yrotation Xrotation Zrotation
       JOINT RightElbow
       {
        OFFSET 0.000000 -29.696600 0.000000
        CHANNELS 3 Yrotation Xrotation Zrotation
        JOINT RightWrist
        {
         OFFSET 0.000000 -24.004700 0.000000
         CHANNELS 3 Yrotation Xrotation Zrotation
         End Site
         {
          OFFSET 0.000000 -17.728500 0.000000
         }
        }
       }
      }
     }
     JOINT LeftCollar
     {
      OFFSET 2.921100 9.558500 0.000000
      CHANNELS 3 Yrotation Xrotation Zrotation
      JOINT LeftShoulder
      {
       OFFSET 13.519700 0.000000 0.000000
       CHANNELS 3 Yrotation Xrotation Zrotation
       JOINT LeftElbow
       {
        OFFSET 0.000000 -29.696600 0.000000
        CHANNELS 3 Yrotation Xrotation Zrotation
        JOINT LeftWrist
        {
         OFFSET 0.000000 -24.004700 0.000000
         CHANNELS 3 Yrotation Xrotation Zrotation
         End Site
         {
          OFFSET 0.000000 -17.728500 0.000000
         }
        }
       }
      }
     }
    }
   }
  }
 }
 JOINT RightHip
 {
  OFFSET -7.771700 -0.012900 -0.001300
  CHANNELS 3 Yrotation Xrotation Zrotation
  JOINT RightKnee
  {
   OFFSET 0.000000 -40.869800 0.001200
   CHANNELS 3 Yrotation Xrotation Zrotation
   JOINT RightAnkle
   {
    OFFSET 0.000000 -39.717900 0.002100
    CHANNELS 3 Yrotation Xrotation Zrotation
    JOINT RightToe
    {
     OFFSET 0.000000 -4.965400 11.033500
     CHANNELS 3 Yrotation Xrotation Zrotation
     End Site
     {
      OFFSET 0.000000 -1.423100 5.872300
     }
    }
   }
  }
 }
 JOINT LeftHip
 {
  OFFSET 7.771700 -0.012900 -0.001300
  CHANNELS 3 Yrotation Xrotation Zrotation
  JOINT LeftKnee
  {
   OFFSET 0.000000 -40.869800 0.001200
   CHANNELS 3 Yrotation Xrotation Zrotation
   JOINT LeftAnkle
   {
    OFFSET 0.000000 -39.717900 0.002100
    CHANNELS 3 Yrotation Xrotation Zrotation
    JOINT LeftToe
    {
     OFFSET 0.000000 -4.965400 11.033500
     CHANNELS 3 Yrotation Xrotation Zrotation
     End Site
     {
      OFFSET 0.000000 -1.423100 5.872300
     }
    }
   }
  }
 }
}
MOTION
Frames: 12
Frame Time: 0.008333
0.000000 85.388000 0.000000 0.000000 -5.767877 0.000000 0.000000 11.653817 0.000000 0.000000 -5.885947 0.000000 0.000000 -0.000000 0.000000 0.000000 -0.000000 0.000000 0.000000 12.528835 0.000000 0.000000 0.711642 0.000000 0.000000 -0.000000 0.000000 0.000000 0.000000 -90.000000 0.000000 -2.309062 0.000000 0.000000 2.309062 0.000000 0.000000 -0.000000 0.000000 0.000000 -0.000000 90.000000 0.000000 -2.309062 0.000000 0.000000 2.309062 0.000000 0.000000 8.520406 0.000000 0.000000 1.905762 0.000000 -0.000000 -4.658285 0.000000 0.000000 -0.000000 0.000000 0.000000 8.520406 0.000000 0.000000 1.905762 0.000000 -0.000000 -4.658285 0.000000 0.000000 -0.000000 0.000000
-140.006493 49.306224 18.635609 177.248958 -28.662958 -3.943701 3.156110 15.921058 3.065691 0.326577 1.619501 0.243006 0.478903 2.678543 0.405933 2.888328 14.112035 2.456217 13.899657 18.395328 -0.468564 25.631487 -0.425309 -5.157463 -6.783795 -2.914359 -1.394759 -15.061819 -3.574475 -15.852652 -51.663906 -43.755532 89.769324 -0.805428 -2.029718 -14.641384 1.108099 -2.863654 3.469496 19.438558 -5.058924 14.541697 78.071799 -46.053741 -99.344058 15.348438 -5.545718 28.320549 -2.374101 -55.990880 -7.675410 -163.077056 84.001484 -150.979479 -30.331004 -1.952102 -3.965505 -0.218762 -11.512215 1.721439 -19.138946 -57.149521 20.615382 -73.965178 66.313872 -78.412725 30.518192 7.003957 13.728261 -0.037022 -0.407861 0.036291
-140.013905 49.305247 18.643499 177.296407 -28.647457 -3.958895 3.178218 15.928016 3.079431 0.279218 1.604413 0.240720 0.479879 2.681616 0.406929 2.901856 14.136308 2.467774 13.852858 18.413651 -0.460078 25.541012 -0.401238 -5.125333 -6.765239 -2.868419 -1.398502 -15.104501 -3.577413 -15.706585 -51.821970 -43.782474 89.803405 -0.814942 -2.025137 -14.659228 1.115915 -2.815020 3.440319 19.410610 -5.035413 14.425222 78.173943 -46.076800 -99.389873 15.373944 -5.478212 28.258854 -2.399958 -56.009562 -7.670468 -162.973236 84.001348 -150.904078 -30.326343 -1.930679 -3.948636 -0.208361 -11.511692 1.723450 -19.156081 -57.170067 20.612205 -73.906480 66.289384 -78.361424 30.520701 7.042569 13.741074 -0.025214 -0.412562 0.040547
-140.024945 49.304590 18.650964 177.339287 -28.639015 -3.952742 3.162508 15.933685 3.062448 0.266187 1.600403 0.239935 0.495372 2.694907 0.410673 2.897503 14.150224 2.472533 13.807155 18.430209 -0.451824 25.452834 -0.380090 -5.094185 -6.743903 -2.819059 -1.399273 -15.131725 -3.576893 -15.558195 -51.914032 -43.873161 89.804780 -0.872670 -2.061623 -14.670705 1.121405 -2.766879 3.413294 19.372841 -5.004175 14.312457 78.273716 -46.115751 -99.433361 15.390986 -5.399731 28.180766 -2.375697 -56.027891 -7.699660 -162.795234 83.992149 -150.768190 -30.325901 -1.892044 -3.906571 -0.221737 -11.514654 1.723576 -19.150803 -57.187711 20.567953 -73.838315 66.275686 -78.307014 30.539933 7.077699 13.764939 -0.033657 -0.414051 0.022341
-140.033898 49.303660 18.659619 177.384190 -28.626328 -3.959954 3.146316 15.933680 3.057177 0.267284 1.605752 0.241392 0.522264 2.719851 0.415260 2.866373 14.142388 2.470912 13.762940 18.443335 -0.444487 25.368064 -0.364820 -5.065770 -6.719208 -2.767263 -1.395290 -15.149145 -3.571458 -15.411303 -52.079532 -43.894924 89.852995 -0.847516 -2.029933 -14.652878 1.124229 -2.719925 3.390626 19.332170 -4.965248 14.204226 78.365051 -46.166160 -99.474460 15.381043 -5.334638 28.095679 -2.388660 -56.041902 -7.716742 -162.764332 83.994968 -150.757475 -30.318981 -1.876933 -3.889237 -0.234554 -11.511743 1.722685 -19.161545 -57.205778 20.545815 -73.771588 66.257746 -78.242309 30.546150 7.118456 13.781323 -0.031045 -0.422789 0.020575
-140.043220 49.302298 18.668696 177.413891 -28.611213 -3.954464 3.127011 15.925744 3.040664 0.282041 1.614656 0.243470 0.513529 2.719699 0.414693 2.869930 14.158549 2.471740 13.726064 18.444098 -0.439410 25.283651 -0.349749 -5.034484 -6.693630 -2.716285 -1.387911 -15.155513 -3.557095 -15.270405 -52.224078 -43.923926 89.901328 -0.816288 -1.995843 -14.620005 1.122583 -2.674234 3.370414 19.300719 -4.920802 14.102903 78.437183 -46.218904 -99.514085 15.369599 -5.279508 28.007430 -2.366083 -56.060136 -7.752366 -162.758414 83.999443 -150.763011 -30.318974 -1.865416 -3.875909 -0.222180 -11.505014 1.720070 -19.150372 -57.228941 20.517482 -73.684813 66.255410 -78.169750 30.552534 7.161325 13.815583 -0.045160 -0.439351 0.016144
-140.047831 49.302062 18.675768 177.448599 -28.608978 -3.973569 3.109713 15.929538 3.047307 0.294062 1.622497 0.244660 0.495653 2.711529 0.413948 2.879723 14.174629 2.471111 13.690930 18.455906 -0.434304 25.210363 -0.346101 -5.011540 -6.665480 -2.663334 -1.383921 -15.152248 -3.531301 -15.132133 -52.327812 -43.981779 89.933226 -0.801857 -1.971258 -14.567208 1.115524 -2.658533 3.362520 19.285041 -4.836020 14.008574 78.536267 -46.301504 -99.603585 15.395411 -5.213462 27.944586 -2.371701 -56.060111 -7.754755 -162.771936 84.006378 -150.779572 -30.320741 -1.851962 -3.867026 -0.222644 -11.503049 1.721869 -19.152930 -57.235278 20.519479 -73.644869 66.246396 -78.130296 30.529788 7.184602 13.826186 -0.020457 -0.431586 0.009967
-140.052725 49.302444 18.680473 177.488462 -28.617410 -3.986279 3.119361 15.950744 3.051632 0.273445 1.620590 0.247103 0.495732 2.715910 0.413857 2.862489 14.165968 2.471213 13.659650 18.485510 -0.429883 25.147559 -0.352405 -4.995458 -6.650006 -2.635058 -1.384105 -15.125063 -3.466141 -15.004123 -52.409226 -44.045299 89.963250 -0.783086 -1.940812 -14.491800 1.126556 -2.583322 3.336177 19.264291 -4.802868 13.918483 78.533049 -46.325404 -99.610506 15.367960 -5.201188 27.865697 -2.361932 -56.047901 -7.779583 -162.802077 84.013321 -150.808153 -30.327191 -1.841211 -3.859115 -0.217273 -11.501346 1.724680 -19.163624 -57.228955 20.501229 -73.594786 66.258932 -78.089513 30.535273 7.194529 13.837503 -0.030642 -0.429239 0.011812
-140.055118 49.302244 18.685360 177.493572 -28.621843 -3.990713 3.126265 15.956809 3.055681 0.284840 1.626107 0.245762 0.495484 2.719586 0.414049 2.859386 14.175142 2.470046 13.622073 18.488526 -0.424235 25.126272 -0.362787 -4.994261 -6.621076 -2.575063 -1.389189 -15.125611 -3.439596 -14.854582 -52.468331 -44.115038 89.992028 -0.758996 -1.909179 -14.399036 1.127224 -2.532083 3.314589 19.233318 -4.765786 13.836481 78.502380 -46.337655 -99.605742 15.340146 -5.206639 27.808922 -2.342737 -56.041647 -7.780275 -162.777636 84.020184 -150.783700 -30.330429 -1.837549 -3.853088 -0.212705 -11.491968 1.725586 -19.159361 -57.225547 20.502393 -73.555579 66.275849 -78.059586 30.534665 7.201537 13.853921 -0.034015 -0.427793 0.007136
-140.053261 49.302689 18.688396 177.514209 -28.633404 -4.021476 3.124710 15.969272 3.079683 0.293729 1.630147 0.244600 0.494923 2.723762 0.413566 2.864279 14.201457 2.460052 13.594384 18.460889 -0.413111 25.094699 -0.364123 -4.983526 -6.601025 -2.531235 -1.385013 -15.122086 -3.412273 -14.705748 -52.507103 -44.192128 90.016546 -0.728336 -1.876721 -14.293765 1.118859 -2.519884 3.305264 19.192142 -4.709844 13.761083 78.485331 -46.361713 -99.612596 15.339139 -5.199747 27.770668 -2.364137 -56.023097 -7.752608 -162.728478 84.023736 -150.727397 -30.325283 -1.834316 -3.850107 -0.210020 -11.489558 1.726298 -19.157620 -57.215315 20.529999 -73.558659 66.265136 -78.056964 30.503571 7.206037 13.852958 -0.015599 -0.422755 0.021732
-140.053779 49.302980 18.689918 177.531230 -28.647529 -4.030882 3.146655 15.986082 3.085003 0.277127 1.631561 0.248704 0.510603 2.737396 0.407424 2.837507 14.187016 2.467980 13.580353 18.468206 -0.410061 25.020873 -0.355890 -4.947017 -6.578461 -2.474851 -1.396741 -15.104412 -3.373956 -14.570813 -52.527312 -44.271898 90.039432 -0.689962 -1.839572 -14.182204 1.126227 -2.482878 3.278224 19.139104 -4.652510 13.691636 78.452340 -46.377199 -99.606397 15.344128 -5.190728 27.738761 -2.365573 -56.005691 -7.755569 -162.728701 84.024713 -150.725865 -30.322947 -1.834314 -3.847179 -0.212074 -11.487216 1.728346 -19.148414 -57.204388 20.523114 -73.547335 66.266303 -78.049895 30.503117 7.207272 13.861557 -0.018855 -0.421377 0.025633
-140.054229 49.304043 18.688812 177.557391 -28.672835 -4.040558 3.132408 16.013185 3.083083 0.289081 1.635486 0.247029 0.500765 2.739911 0.407332 2.842103 14.202723 2.461241 13.515529 18.506494 -0.396309 24.914530 -0.354014 -4.903699 -6.567907 -2.436448 -1.393625 -15.081443 -3.340046 -14.450329 -52.532083 -44.344745 90.064605 -0.644859 -1.796874 -14.072577 1.124236 -2.469772 3.260776 19.074557 -4.598250 13.629972 78.404662 -46.383333 -99.587841 15.353266 -5.171695 27.712360 -2.382691 -55.977093 -7.754289 -162.743725 84.022674 -150.747388 -30.330669 -1.835265 -3.841770 -0.205957 -11.488253 1.730400 -19.145614 -57.181190 20.501891 -73.543361 66.266018 -78.047690 30.511936 7.206500 13.863111 0.003522 -0.410214 0.019194
